<svg width="1400" height="700" viewBox="0 0 1400 700" xmlns="http://www.w3.org/2000/svg">
    <defs>
        <linearGradient id="skyGradient" x1="0%" y1="0%" x2="0%" y2="100%">
            <stop offset="0%" style="stop-color:#87CEEB;stop-opacity:1" />
            <stop offset="100%" style="stop-color:#E0F4FF;stop-opacity:1" />
        </linearGradient>
        
        <linearGradient id="pinkGrad" x1="0%" y1="0%" x2="100%" y2="100%">
            <stop offset="0%" style="stop-color:#FF6B9D;stop-opacity:1" />
            <stop offset="100%" style="stop-color:#E84A7F;stop-opacity:1" />
        </linearGradient>
    </defs>

    <rect width="1400" height="700" rx="40" fill="url(#skyGradient)"/>

    <!-- Cloud 1 (top left) -->
    <g transform="translate(100, 80)">
        <ellipse cx="0" cy="0" rx="60" ry="35" fill="#FFFFFF" opacity="0.95"/>
        <ellipse cx="50" cy="6" rx="50" ry="30" fill="#FFFFFF" opacity="0.95"/>
        <ellipse cx="-42" cy="6" rx="42" ry="26" fill="#FFFFFF" opacity="0.95"/>
        <ellipse cx="25" cy="-18" rx="36" ry="24" fill="#FFFFFF" opacity="0.95"/>
    </g>
    
    <!-- Cloud 2 (top right) -->
    <g transform="translate(1280, 70)">
        <ellipse cx="0" cy="0" rx="55" ry="32" fill="#FFFFFF" opacity="0.9"/>
        <ellipse cx="45" cy="6" rx="42" ry="26" fill="#FFFFFF" opacity="0.9"/>
        <ellipse cx="-38" cy="6" rx="36" ry="24" fill="#FFFFFF" opacity="0.9"/>
        <ellipse cx="18" cy="-14" rx="30" ry="22" fill="#FFFFFF" opacity="0.9"/>
    </g>
    
    <!-- Cloud 3 (bottom left) -->
    <g transform="translate(120, 600)">
        <ellipse cx="0" cy="0" rx="55" ry="30" fill="#FFFFFF" opacity="0.85"/>
        <ellipse cx="46" cy="5" rx="44" ry="26" fill="#FFFFFF" opacity="0.85"/>
        <ellipse cx="-38" cy="5" rx="36" ry="22" fill="#FFFFFF" opacity="0.85"/>
        <ellipse cx="22" cy="-14" rx="32" ry="20" fill="#FFFFFF" opacity="0.85"/>
    </g>
    
    <!-- Cloud 4 (bottom right) -->
    <g transform="translate(1300, 580)">
        <ellipse cx="0" cy="0" rx="50" ry="28" fill="#FFFFFF" opacity="0.8"/>
        <ellipse cx="40" cy="5" rx="38" ry="24" fill="#FFFFFF" opacity="0.8"/>
        <ellipse cx="-34" cy="5" rx="34" ry="20" fill="#FFFFFF" opacity="0.8"/>
        <ellipse cx="16" cy="-12" rx="28" ry="18" fill="#FFFFFF" opacity="0.8"/>
    </g>
    
    <!-- Cloud 5 (middle left) -->
    <g transform="translate(60, 350)">
        <ellipse cx="0" cy="0" rx="42" ry="24" fill="#FFFFFF" opacity="0.75"/>
        <ellipse cx="34" cy="4" rx="34" ry="22" fill="#FFFFFF" opacity="0.75"/>
        <ellipse cx="-28" cy="4" rx="28" ry="18" fill="#FFFFFF" opacity="0.75"/>
    </g>
    
    <!-- Cloud 6 (middle right) -->
    <g transform="translate(1340, 370)">
        <ellipse cx="0" cy="0" rx="45" ry="26" fill="#FFFFFF" opacity="0.75"/>
        <ellipse cx="36" cy="4" rx="34" ry="20" fill="#FFFFFF" opacity="0.75"/>
        <ellipse cx="-30" cy="4" rx="30" ry="18" fill="#FFFFFF" opacity="0.75"/>
    </g>
    
    <!-- Cloud 7 (top center-left) -->
    <g transform="translate(400, 60)">
        <ellipse cx="0" cy="0" rx="48" ry="28" fill="#FFFFFF" opacity="0.85"/>
        <ellipse cx="38" cy="5" rx="38" ry="24" fill="#FFFFFF" opacity="0.85"/>
        <ellipse cx="-34" cy="5" rx="34" ry="22" fill="#FFFFFF" opacity="0.85"/>
    </g>
    
    <!-- Cloud 8 (top center-right) -->
    <g transform="translate(1000, 90)">
        <ellipse cx="0" cy="0" rx="50" ry="30" fill="#FFFFFF" opacity="0.88"/>
        <ellipse cx="40" cy="5" rx="40" ry="25" fill="#FFFFFF" opacity="0.88"/>
        <ellipse cx="-36" cy="5" rx="36" ry="22" fill="#FFFFFF" opacity="0.88"/>
    </g>
    
    <!-- Cloud 9 (left side mid-low) -->
    <g transform="translate(220, 480)">
        <ellipse cx="0" cy="0" rx="45" ry="26" fill="#FFFFFF" opacity="0.8"/>
        <ellipse cx="36" cy="4" rx="36" ry="22" fill="#FFFFFF" opacity="0.8"/>
        <ellipse cx="-32" cy="4" rx="32" ry="20" fill="#FFFFFF" opacity="0.8"/>
    </g>
    
    <!-- Cloud 10 (right side mid-low) -->
    <g transform="translate(1180, 460)">
        <ellipse cx="0" cy="0" rx="48" ry="27" fill="#FFFFFF" opacity="0.8"/>
        <ellipse cx="38" cy="4" rx="38" ry="23" fill="#FFFFFF" opacity="0.8"/>
        <ellipse cx="-34" cy="4" rx="34" ry="20" fill="#FFFFFF" opacity="0.8"/>
    </g>
    
    <!-- Cloud 11 (upper mid) -->
    <g transform="translate(700, 50)">
        <ellipse cx="0" cy="0" rx="52" ry="30" fill="#FFFFFF" opacity="0.9"/>
        <ellipse cx="42" cy="5" rx="42" ry="26" fill="#FFFFFF" opacity="0.9"/>
        <ellipse cx="-38" cy="5" rx="38" ry="24" fill="#FFFFFF" opacity="0.9"/>
    </g>
    
    <!-- Cloud 12 (lower mid) -->
    <g transform="translate(700, 650)">
        <ellipse cx="0" cy="0" rx="50" ry="28" fill="#FFFFFF" opacity="0.85"/>
        <ellipse cx="40" cy="4" rx="40" ry="24" fill="#FFFFFF" opacity="0.85"/>
        <ellipse cx="-36" cy="4" rx="36" ry="22" fill="#FFFFFF" opacity="0.85"/>
    </g>

    <!-- Phone Body -->
    <rect x="548" y="125" width="304" height="450" rx="36" fill="#a3a3a3"/>
    <!-- Phone screen -->
    <rect x="576" y="160" width="248" height="380" rx="20" fill="#FFFFFF"/>

    <!-- Speaker -->
    <rect x="655" y="138" width="90" height="10" rx="5" fill="#444"/>

    <!-- Car Icon -->
    <g transform="translate(630, 210)">
        <rect x="0" y="40" width="140" height="55" rx="12" fill="url(#pinkGrad)"/>
        <rect x="20" y="0" width="100" height="50" rx="12" fill="url(#pinkGrad)"/>
        <circle cx="35" cy="100" r="10" fill="#111"/>
        <circle cx="105" cy="100" r="10" fill="#111"/>
        <circle cx="45" cy="30" r="8" fill="#FFFFFF"/>
        <circle cx="95" cy="30" r="8" fill="#FFFFFF"/>
    </g>

    <!-- CO₂ Text -->
    <text x="620" y="420" font-size="72" font-weight="700" font-family="Arial, Helvetica, sans-serif" fill="#1E3A8A">CO</text>
    <text x="725" y="440" font-size="42" font-weight="700" font-family="Arial, Helvetica, sans-serif" fill="#1E3A8A">2</text>

    <!-- Location Pin -->
    <path d="M700 455 C668 455 645 480 645 515 C645 555 700 600 700 600 C700 600 755 555 755 515 C755 480 732 455 700 455 Z" fill="#1E3A8A" stroke="#FFFFFF" stroke-width="6"/>
    <circle cx="700" cy="510" r="18" fill="#FFFFFF" stroke="#000000" stroke-width="2"/>

</svg>